<mxfile host="app.diagrams.net" agent="Mozilla/5.0 (X11; Ubuntu; Linux x86_64; rv:136.0) Gecko/20100101 Firefox/136.0" version="26.1.0">
  <diagram name="Page-1" id="VTF49k1TH5dO1ASxDbJ3">
    <mxGraphModel dx="825" dy="831" grid="1" gridSize="6" guides="1" tooltips="1" connect="1" arrows="1" fold="1" page="1" pageScale="1" pageWidth="1100" pageHeight="850" math="0" shadow="0">
      <root>
        <mxCell id="0" />
        <mxCell id="1" parent="0" />
        <mxCell id="Lfv-IM9Bj-ounIQBqSNt-4" value="&lt;div align=&quot;center&quot;&gt;&lt;b&gt;Frontend - Client&lt;/b&gt;&lt;/div&gt;&lt;hr align=&quot;center&quot; size=&quot;1&quot; style=&quot;border-style:solid;&quot;&gt;&lt;p align=&quot;left&quot; style=&quot;margin:0px;margin-left:8px;&quot;&gt;&lt;br&gt;&lt;/p&gt;" style="align=left;overflow=fill;html=1;dropTarget=0;whiteSpace=wrap;" parent="1" vertex="1">
          <mxGeometry x="102" y="60" width="280" height="420" as="geometry" />
        </mxCell>
        <mxCell id="Lfv-IM9Bj-ounIQBqSNt-5" value="" style="shape=component;jettyWidth=8;jettyHeight=4;" parent="Lfv-IM9Bj-ounIQBqSNt-4" vertex="1">
          <mxGeometry x="1" width="20" height="20" relative="1" as="geometry">
            <mxPoint x="-24" y="4" as="offset" />
          </mxGeometry>
        </mxCell>
        <mxCell id="Lfv-IM9Bj-ounIQBqSNt-9" value="" style="ellipse;whiteSpace=wrap;html=1;align=center;aspect=fixed;fillColor=none;strokeColor=none;resizable=0;perimeter=centerPerimeter;rotatable=0;allowArrows=0;points=[];outlineConnect=1;" parent="1" vertex="1">
          <mxGeometry x="317" y="400" width="10" height="10" as="geometry" />
        </mxCell>
        <mxCell id="Lfv-IM9Bj-ounIQBqSNt-10" value="«component»&lt;br&gt;&lt;b&gt;Map UI&lt;/b&gt;" style="html=1;dropTarget=0;whiteSpace=wrap;" parent="1" vertex="1">
          <mxGeometry x="152" y="240" width="110" height="50" as="geometry" />
        </mxCell>
        <mxCell id="Lfv-IM9Bj-ounIQBqSNt-11" value="" style="shape=module;jettyWidth=8;jettyHeight=4;" parent="Lfv-IM9Bj-ounIQBqSNt-10" vertex="1">
          <mxGeometry x="1" width="20" height="20" relative="1" as="geometry">
            <mxPoint x="-27" y="7" as="offset" />
          </mxGeometry>
        </mxCell>
        <mxCell id="Lfv-IM9Bj-ounIQBqSNt-12" value="«component»&lt;br&gt;&lt;b&gt;User Account UI&lt;/b&gt;" style="html=1;dropTarget=0;whiteSpace=wrap;" parent="1" vertex="1">
          <mxGeometry x="152" y="120" width="110" height="50" as="geometry" />
        </mxCell>
        <mxCell id="Lfv-IM9Bj-ounIQBqSNt-13" value="" style="shape=module;jettyWidth=8;jettyHeight=4;" parent="Lfv-IM9Bj-ounIQBqSNt-12" vertex="1">
          <mxGeometry x="1" width="20" height="20" relative="1" as="geometry">
            <mxPoint x="-27" y="7" as="offset" />
          </mxGeometry>
        </mxCell>
        <mxCell id="Lfv-IM9Bj-ounIQBqSNt-14" value="«component»&lt;br&gt;&lt;b&gt;Driver Account UI&lt;/b&gt;" style="html=1;dropTarget=0;whiteSpace=wrap;" parent="1" vertex="1">
          <mxGeometry x="152" y="180" width="110" height="50" as="geometry" />
        </mxCell>
        <mxCell id="Lfv-IM9Bj-ounIQBqSNt-15" value="" style="shape=module;jettyWidth=8;jettyHeight=4;" parent="Lfv-IM9Bj-ounIQBqSNt-14" vertex="1">
          <mxGeometry x="1" width="20" height="20" relative="1" as="geometry">
            <mxPoint x="-27" y="7" as="offset" />
          </mxGeometry>
        </mxCell>
        <mxCell id="Lfv-IM9Bj-ounIQBqSNt-16" value="«component»&lt;br&gt;&lt;b&gt;Order UI&lt;/b&gt;" style="html=1;dropTarget=0;whiteSpace=wrap;" parent="1" vertex="1">
          <mxGeometry x="152" y="300" width="110" height="50" as="geometry" />
        </mxCell>
        <mxCell id="Lfv-IM9Bj-ounIQBqSNt-17" value="" style="shape=module;jettyWidth=8;jettyHeight=4;" parent="Lfv-IM9Bj-ounIQBqSNt-16" vertex="1">
          <mxGeometry x="1" width="20" height="20" relative="1" as="geometry">
            <mxPoint x="-27" y="7" as="offset" />
          </mxGeometry>
        </mxCell>
        <mxCell id="Lfv-IM9Bj-ounIQBqSNt-18" value="«component»&lt;br&gt;&lt;b&gt;Contract creation UI&lt;/b&gt;" style="html=1;dropTarget=0;whiteSpace=wrap;" parent="1" vertex="1">
          <mxGeometry x="152" y="360" width="110" height="70" as="geometry" />
        </mxCell>
        <mxCell id="Lfv-IM9Bj-ounIQBqSNt-19" value="" style="shape=module;jettyWidth=8;jettyHeight=4;" parent="Lfv-IM9Bj-ounIQBqSNt-18" vertex="1">
          <mxGeometry x="1" width="20" height="20" relative="1" as="geometry">
            <mxPoint x="-27" y="7" as="offset" />
          </mxGeometry>
        </mxCell>
        <mxCell id="Lfv-IM9Bj-ounIQBqSNt-20" value="&lt;div align=&quot;center&quot;&gt;&lt;b&gt;Frontend - Client&lt;/b&gt;&lt;/div&gt;&lt;hr align=&quot;center&quot; size=&quot;1&quot; style=&quot;border-style:solid;&quot;&gt;&lt;p align=&quot;left&quot; style=&quot;margin:0px;margin-left:8px;&quot;&gt;&lt;br&gt;&lt;/p&gt;" style="align=left;overflow=fill;html=1;dropTarget=0;whiteSpace=wrap;" parent="1" vertex="1">
          <mxGeometry x="462" y="336" width="280" height="420" as="geometry" />
        </mxCell>
        <mxCell id="Lfv-IM9Bj-ounIQBqSNt-21" value="" style="shape=component;jettyWidth=8;jettyHeight=4;" parent="Lfv-IM9Bj-ounIQBqSNt-20" vertex="1">
          <mxGeometry x="1" width="20" height="20" relative="1" as="geometry">
            <mxPoint x="-24" y="4" as="offset" />
          </mxGeometry>
        </mxCell>
        <mxCell id="Lfv-IM9Bj-ounIQBqSNt-22" value="" style="ellipse;whiteSpace=wrap;html=1;align=center;aspect=fixed;fillColor=none;strokeColor=none;resizable=0;perimeter=centerPerimeter;rotatable=0;allowArrows=0;points=[];outlineConnect=1;" parent="1" vertex="1">
          <mxGeometry x="659" y="694" width="10" height="10" as="geometry" />
        </mxCell>
        <mxCell id="Lfv-IM9Bj-ounIQBqSNt-23" value="«component»&lt;br&gt;&lt;b&gt;Map UI&lt;/b&gt;" style="html=1;dropTarget=0;whiteSpace=wrap;" parent="1" vertex="1">
          <mxGeometry x="494" y="534" width="110" height="50" as="geometry" />
        </mxCell>
        <mxCell id="Lfv-IM9Bj-ounIQBqSNt-24" value="" style="shape=module;jettyWidth=8;jettyHeight=4;" parent="Lfv-IM9Bj-ounIQBqSNt-23" vertex="1">
          <mxGeometry x="1" width="20" height="20" relative="1" as="geometry">
            <mxPoint x="-27" y="7" as="offset" />
          </mxGeometry>
        </mxCell>
        <mxCell id="Lfv-IM9Bj-ounIQBqSNt-25" value="«component»&lt;br&gt;&lt;b&gt;User Account UI&lt;/b&gt;" style="html=1;dropTarget=0;whiteSpace=wrap;" parent="1" vertex="1">
          <mxGeometry x="494" y="414" width="110" height="50" as="geometry" />
        </mxCell>
        <mxCell id="Lfv-IM9Bj-ounIQBqSNt-26" value="" style="shape=module;jettyWidth=8;jettyHeight=4;" parent="Lfv-IM9Bj-ounIQBqSNt-25" vertex="1">
          <mxGeometry x="1" width="20" height="20" relative="1" as="geometry">
            <mxPoint x="-27" y="7" as="offset" />
          </mxGeometry>
        </mxCell>
        <mxCell id="Lfv-IM9Bj-ounIQBqSNt-27" value="«component»&lt;br&gt;&lt;b&gt;Driver Account UI&lt;/b&gt;" style="html=1;dropTarget=0;whiteSpace=wrap;" parent="1" vertex="1">
          <mxGeometry x="494" y="474" width="110" height="50" as="geometry" />
        </mxCell>
        <mxCell id="Lfv-IM9Bj-ounIQBqSNt-28" value="" style="shape=module;jettyWidth=8;jettyHeight=4;" parent="Lfv-IM9Bj-ounIQBqSNt-27" vertex="1">
          <mxGeometry x="1" width="20" height="20" relative="1" as="geometry">
            <mxPoint x="-27" y="7" as="offset" />
          </mxGeometry>
        </mxCell>
        <mxCell id="Lfv-IM9Bj-ounIQBqSNt-29" value="«component»&lt;br&gt;&lt;b&gt;Order UI&lt;/b&gt;" style="html=1;dropTarget=0;whiteSpace=wrap;" parent="1" vertex="1">
          <mxGeometry x="494" y="594" width="110" height="50" as="geometry" />
        </mxCell>
        <mxCell id="Lfv-IM9Bj-ounIQBqSNt-30" value="" style="shape=module;jettyWidth=8;jettyHeight=4;" parent="Lfv-IM9Bj-ounIQBqSNt-29" vertex="1">
          <mxGeometry x="1" width="20" height="20" relative="1" as="geometry">
            <mxPoint x="-27" y="7" as="offset" />
          </mxGeometry>
        </mxCell>
        <mxCell id="Lfv-IM9Bj-ounIQBqSNt-31" value="«component»&lt;br&gt;&lt;b&gt;Contract creation UI&lt;/b&gt;" style="html=1;dropTarget=0;whiteSpace=wrap;" parent="1" vertex="1">
          <mxGeometry x="494" y="654" width="110" height="70" as="geometry" />
        </mxCell>
        <mxCell id="Lfv-IM9Bj-ounIQBqSNt-32" value="" style="shape=module;jettyWidth=8;jettyHeight=4;" parent="Lfv-IM9Bj-ounIQBqSNt-31" vertex="1">
          <mxGeometry x="1" width="20" height="20" relative="1" as="geometry">
            <mxPoint x="-27" y="7" as="offset" />
          </mxGeometry>
        </mxCell>
        <mxCell id="Lfv-IM9Bj-ounIQBqSNt-33" value="&lt;div align=&quot;center&quot;&gt;&lt;b&gt;Database&lt;/b&gt;&lt;/div&gt;&lt;hr align=&quot;center&quot; size=&quot;1&quot; style=&quot;border-style:solid;&quot;&gt;&lt;p align=&quot;left&quot; style=&quot;margin:0px;margin-left:8px;&quot;&gt;&lt;br&gt;&lt;/p&gt;" style="align=left;overflow=fill;html=1;dropTarget=0;whiteSpace=wrap;" parent="1" vertex="1">
          <mxGeometry x="876" y="30" width="174" height="258" as="geometry" />
        </mxCell>
        <mxCell id="Lfv-IM9Bj-ounIQBqSNt-34" value="" style="shape=component;jettyWidth=8;jettyHeight=4;" parent="Lfv-IM9Bj-ounIQBqSNt-33" vertex="1">
          <mxGeometry x="1" width="20" height="20" relative="1" as="geometry">
            <mxPoint x="-24" y="4" as="offset" />
          </mxGeometry>
        </mxCell>
        <mxCell id="Lfv-IM9Bj-ounIQBqSNt-35" value="" style="ellipse;whiteSpace=wrap;html=1;align=center;aspect=fixed;fillColor=none;strokeColor=none;resizable=0;perimeter=centerPerimeter;rotatable=0;allowArrows=0;points=[];outlineConnect=1;" parent="1" vertex="1">
          <mxGeometry x="1001" y="400" width="10" height="10" as="geometry" />
        </mxCell>
        <mxCell id="Lfv-IM9Bj-ounIQBqSNt-47" style="edgeStyle=orthogonalEdgeStyle;rounded=0;orthogonalLoop=1;jettySize=auto;html=1;exitX=0.5;exitY=1;exitDx=0;exitDy=0;" parent="1" source="Lfv-IM9Bj-ounIQBqSNt-33" target="Lfv-IM9Bj-ounIQBqSNt-33" edge="1">
          <mxGeometry relative="1" as="geometry" />
        </mxCell>
        <mxCell id="Irs2ePi0aOEwBAZra8DK-2" value="Users" style="html=1;whiteSpace=wrap;" vertex="1" parent="1">
          <mxGeometry x="906" y="80" width="110" height="50" as="geometry" />
        </mxCell>
        <mxCell id="Irs2ePi0aOEwBAZra8DK-3" value="Drivers" style="html=1;whiteSpace=wrap;" vertex="1" parent="1">
          <mxGeometry x="906" y="144" width="110" height="50" as="geometry" />
        </mxCell>
        <mxCell id="Irs2ePi0aOEwBAZra8DK-4" value="Contracts" style="html=1;whiteSpace=wrap;" vertex="1" parent="1">
          <mxGeometry x="906" y="210" width="110" height="50" as="geometry" />
        </mxCell>
      </root>
    </mxGraphModel>
  </diagram>
</mxfile>
